<svg xmlns="http://www.w3.org/2000/svg" width="200" height="200" viewBox="0 0 200 200">
  <rect x="14" y="14" width="172" height="172" rx="42" fill="#0B1B2B"/>
  <g fill="#F5F1E8">
    <rect x="46" y="50" width="22" height="100" rx="11"/>
    <path fill-rule="evenodd" d="M46 50h56c16 0 29 13 29 29s-13 29-29 29H46V50Zm22 20h32c5 0 9 4 9 9s-4 9-9 9H68V70Z"/>
    <rect x="68" y="110" width="30" height="70" rx="15" transform="rotate(-28 83 145)"/>

    <rect x="110" y="50" width="22" height="100" rx="11"/>
    <path fill-rule="evenodd" d="M110 50h56c16 0 29 13 29 29s-13 29-29 29h-56V50Zm22 20h32c5 0 9 4 9 9s-4 9-9 9h-32V70Z"/>
  </g>
  <circle cx="165" cy="156" r="5" fill="#FFB000"/>
</svg>
