<svg xmlns="http://www.w3.org/2000/svg" viewBox="0 0 100 100">
  <rect x="6" y="6" width="88" height="88" rx="22" fill="#000"/>
  <g fill="#fff">
    <rect x="23" y="24" width="10" height="52" rx="5"/>
    <path fill-rule="evenodd" d="M23 24h28c8 0 14 6 14 14s-6 14-14 14H23V24Zm10 10h16c2 0 4 2 4 4s-2 4-4 4H33V34Z"/>
    <rect x="34" y="55" width="14" height="36" rx="7" transform="rotate(-28 41 73)"/>

    <rect x="55" y="24" width="10" height="52" rx="5"/>
    <path fill-rule="evenodd" d="M55 24h28c8 0 14 6 14 14s-6 14-14 14H55V24Zm10 10h16c2 0 4 2 4 4s-2 4-4 4H65V34Z"/>
  </g>
</svg>
